<svg version="1.1" xmlns="http://www.w3.org/2000/svg" viewBox="0 0 255.9950252912007 58.689491117652494" width="511.9900505824014" height="117.37898223530499" filter="invert(93%) hue-rotate(180deg)">
  <!-- svg-source:excalidraw -->
  
  <defs>
    <style class="style-fonts">
      
    </style>
    
  </defs>
  <g stroke-linecap="round" transform="translate(19.140594138856954 10) rotate(0 106.7039794921875 10.154266357421875)"><path d="M5.08 0 C85.58 -1.96, 163.34 -0.34, 208.33 0 M5.08 0 C53.11 -0.11, 100.23 -0.14, 208.33 0 M208.33 0 C209.88 0.57, 213.69 1.05, 213.41 5.08 M208.33 0 C210.86 -0.03, 214.78 1.54, 213.41 5.08 M213.41 5.08 C213.18 7.83, 212.64 10.41, 213.41 15.23 M213.41 5.08 C213.22 8.66, 212.98 12.88, 213.41 15.23 M213.41 15.23 C213.2 17.8, 210.71 18.79, 208.33 20.31 M213.41 15.23 C214.06 16.55, 213.6 22.39, 208.33 20.31 M208.33 20.31 C137.41 18.57, 67.87 19.84, 5.08 20.31 M208.33 20.31 C159.58 19.19, 111.72 19.25, 5.08 20.31 M5.08 20.31 C3.49 19.72, -0.04 17.41, 0 15.23 M5.08 20.31 C3.44 19.57, -2 19.73, 0 15.23 M0 15.23 C-0.79 12.33, 0.77 10.07, 0 5.08 M0 15.23 C0.48 12.35, -0.06 9.84, 0 5.08 M0 5.08 C0.14 1.71, 2.86 1.6, 5.08 0 M0 5.08 C2.28 3.34, 2.47 -2.13, 5.08 0" stroke="#1e1e1e" stroke-width="1" fill="none"></path></g><g stroke-linecap="round"><g transform="translate(23.441253318544454 29.5946044921875) rotate(0 -6.49212646484375 9.0262451171875)"><path d="M-0.48 0.27 C-2.79 3.23, -11.31 14.7, -13.44 17.59 M0.28 -0.07 C-1.9 2.96, -10.1 15.05, -12.44 18.05" stroke="#1e1e1e" stroke-width="1" fill="none"></path></g></g><mask></mask><g stroke-linecap="round" transform="translate(227.00717128729445 30.52691650390625) rotate(0 9.493927001953125 8.791366577148438)"><path d="M10.14 0.39 C12.12 0.35, 14.92 1.01, 16.38 2.27 C17.85 3.52, 18.82 6.02, 18.94 7.91 C19.07 9.79, 18.27 12.09, 17.12 13.57 C15.96 15.06, 13.8 16.22, 12.01 16.81 C10.22 17.4, 8.26 17.74, 6.38 17.11 C4.49 16.48, 1.78 14.8, 0.68 13.02 C-0.42 11.24, -0.79 8.27, -0.22 6.46 C0.35 4.64, 2.43 3.28, 4.08 2.15 C5.73 1.03, 8.58 -0.04, 9.68 -0.29 C10.77 -0.53, 10.63 0.59, 10.66 0.7 M9.7 0.49 C11.76 0.36, 14.44 0.99, 16.05 2 C17.66 3.02, 19.08 4.86, 19.35 6.58 C19.61 8.3, 18.77 10.61, 17.63 12.34 C16.49 14.07, 14.37 16.07, 12.52 16.95 C10.66 17.83, 8.44 18.15, 6.49 17.63 C4.54 17.1, 1.79 15.52, 0.83 13.79 C-0.13 12.05, 0.42 9.26, 0.72 7.24 C1.02 5.21, 1.15 2.86, 2.63 1.63 C4.11 0.4, 8.41 0.15, 9.61 -0.14 C10.81 -0.43, 9.99 -0.18, 9.83 -0.12" stroke="#1e1e1e" stroke-width="1" fill="none"></path></g><g stroke-linecap="round"><g transform="translate(12.511932029481954 46.99371337890625) rotate(0 10.03277587890625 0.4053955078125)"><path d="M-0.4 0.13 C3.1 0.31, 17.2 0.58, 20.53 0.76 M0.39 -0.28 C3.91 0.01, 16.97 1.33, 20.34 1.43" stroke="#1e1e1e" stroke-width="1" fill="none"></path></g></g><mask></mask><g stroke-linecap="round"><g transform="translate(31.705535545106954 48.21099853515625) rotate(0 -4.1163330078125 -7.5038909912109375)"><path d="M-0.41 0.48 C-1.82 -2.07, -7.33 -12.93, -8.72 -15.44 M0.38 0.25 C-0.84 -2.23, -6.38 -12.36, -7.73 -14.96" stroke="#1e1e1e" stroke-width="1" fill="none"></path></g></g><mask></mask></svg>