<svg version="1.1" xmlns="http://www.w3.org/2000/svg" viewBox="0 0 254.79421950869494 47.86615959948551" width="509.5884390173899" height="95.73231919897103" filter="invert(93%) hue-rotate(180deg)">
  <!-- svg-source:excalidraw -->
  
  <defs>
    <style class="style-fonts">
      
    </style>
    
  </defs>
  <g stroke-linecap="round" transform="translate(21.939788356351187 10) rotate(0 106.7039794921875 4.26470947265625)"><path d="M2.13 0 C84.28 -0.98, 165.08 -0.18, 211.28 0 M2.13 0 C51.22 -0.06, 99.85 -0.08, 211.28 0 M211.28 0 C211.78 0.29, 213.55 0.39, 213.41 2.13 M211.28 0 C212.27 -0.01, 214.1 0.63, 213.41 2.13 M213.41 2.13 C213.36 3.22, 213.25 4.28, 213.41 6.4 M213.41 2.13 C213.37 3.73, 213.32 5.45, 213.41 6.4 M213.41 6.4 C213.31 7.41, 212.19 7.77, 211.28 8.53 M213.41 6.4 C213.73 6.79, 213.64 9.57, 211.28 8.53 M211.28 8.53 C139.08 7.65, 67.56 8.28, 2.13 8.53 M211.28 8.53 C161.48 7.97, 112.11 8, 2.13 8.53 M2.13 8.53 C1.61 8.23, -0.02 7.21, 0 6.4 M2.13 8.53 C1.58 8.16, -1 8.37, 0 6.4 M0 6.4 C-0.17 5.32, 0.16 4.39, 0 2.13 M0 6.4 C0.1 5.26, -0.01 4.21, 0 2.13 M0 2.13 C0.07 0.72, 1.29 0.8, 2.13 0 M0 2.13 C1.14 1.53, 1.1 -1.07, 2.13 0" stroke="#1e1e1e" stroke-width="1" fill="none"></path></g><g stroke-linecap="round" transform="translate(225.8063655047887 18.52691650390625) rotate(0 9.493927001953125 8.791366577148438)"><path d="M10.14 0.39 C12.12 0.35, 14.92 1.01, 16.38 2.27 C17.85 3.52, 18.82 6.02, 18.94 7.91 C19.07 9.79, 18.27 12.09, 17.12 13.57 C15.96 15.06, 13.8 16.22, 12.01 16.81 C10.22 17.4, 8.26 17.74, 6.38 17.11 C4.49 16.48, 1.78 14.8, 0.68 13.02 C-0.42 11.24, -0.79 8.27, -0.22 6.46 C0.35 4.64, 2.43 3.28, 4.08 2.15 C5.73 1.03, 8.58 -0.04, 9.68 -0.29 C10.77 -0.53, 10.63 0.59, 10.66 0.7 M9.7 0.49 C11.76 0.36, 14.44 0.99, 16.05 2 C17.66 3.02, 19.08 4.86, 19.35 6.58 C19.61 8.3, 18.77 10.61, 17.63 12.34 C16.49 14.07, 14.37 16.07, 12.52 16.95 C10.66 17.83, 8.44 18.15, 6.49 17.63 C4.54 17.1, 1.79 15.52, 0.83 13.79 C-0.13 12.05, 0.42 9.26, 0.72 7.24 C1.02 5.21, 1.15 2.86, 2.63 1.63 C4.11 0.4, 8.41 0.15, 9.61 -0.14 C10.81 -0.43, 9.99 -0.18, 9.83 -0.12" stroke="#1e1e1e" stroke-width="1" fill="none"></path></g><g stroke-linecap="round"><g transform="translate(24.328601585138586 19.431687893969354) rotate(0 -7.158203883410465 8.592257353396207)"><path d="M0 0 C-4.78 6.97, -10.33 13.69, -14.32 17.18 M0 0 C-3.38 4.31, -7.41 8.52, -14.32 17.18" stroke="#1e1e1e" stroke-width="1" fill="none"></path></g></g><mask></mask><g stroke-linecap="round"><g transform="translate(10 37.5617864031467) rotate(0 13.27473691309649 0.13217672450406326)"><path d="M0 0 C9.51 -0.73, 20.59 -0.66, 26.55 0.26 M0 0 C6.36 -0.26, 13.77 0.48, 26.55 0.26" stroke="#1e1e1e" stroke-width="1" fill="none"></path></g></g><mask></mask><g stroke-linecap="round"><g transform="translate(36.80425826811518 37.718943272464685) rotate(0 -6.761087126801385 -9.781510144270896)"><path d="M0 0 C-2.12 -5.19, -5.93 -9.4, -13.52 -19.56 M0 0 C-4.22 -5.64, -7.47 -11.22, -13.52 -19.56" stroke="#1e1e1e" stroke-width="1" fill="none"></path></g></g><mask></mask></svg>